<?xml version="1.0" encoding="utf-8"?><svg viewBox="0 0 100 100" xmlns="http://www.w3.org/2000/svg" width="200px" height="200px" xmlns:xlink="http://www.w3.org/1999/xlink" style="width:100%;height:100%;background-size:initial;background-repeat-y:initial;background-repeat-x:initial;background-position-y:initial;background-position-x:initial;background-origin:initial;background-color:initial;background-clip:initial;background-attachment:initial;animation-play-state:paused" ><g class="ldl-scale" style="transform-origin:50% 50%;transform:rotate(0deg) scale(0.8, 0.8);animation-play-state:paused" ><g style="animation-play-state:paused" ><path fill="#333" d="M43.8 85.3c1.2 1.4 2.4 2.5 4 2.3 1.6-.1 3.1-1.1 4.2-2.4 2.2-2.7 3.2-6.3 3.5-9.9.3-3.6 0-7.2-.5-10.8-.5-3.6-1.2-7.2-2.1-10.7-.9-3.5-2-7-3-10.5s-2.2-7-3-10.6c-.4-1.8-.7-3.6-1-5.5-.2-.9-.3-1.9-.4-2.8 0-.5-.1-1 0-1.5 0-.5.1-1 .2-1.4.3-1.9.8-3.8 1.6-5.5.8-1.8 1.6-3.4 2.8-5.1l.9-1.3 1.2 1.1c2 1.8 3.4 4 4.5 6.4 1.1 2.4 1.1 5.2 1 7.7-.1 1.3-.2 2.6-.6 3.8-.3 1.3-.8 2.5-1.4 3.6-1.1 2.4-2.5 4.6-4 6.6-1.5 2.1-3.1 3.9-4.6 5.6-1.5 1.7-3 3.4-4.1 5.2-1.1 1.8-1.9 3.7-2.2 5.6-.3 1.9 0 4.1.9 6 .9 1.9 2.4 3.7 4.3 4.8 1.9 1.1 4.4 1.6 6.7 1.4 1.2-.1 2.4-.4 3.4-.9 1.1-.6 2-1.4 2.7-2.3.7-.9 1.3-1.8 1.6-2.9.3-1 .4-2.2.2-3.2-.3-2.1-1.5-4.1-3.1-5.3-1.6-1.2-3.8-1.6-5.4-1.2-.9.2-1.7.7-2.4 1.2-.6.6-1 1.3-1.2 2.1-.2.8-.3 1.9-.1 2.7.1.4.2.8.5 1.2.2.2.3.4.6.6.2.2.5.4.7.7l-.2.4c-.6 0-1.3 0-2-.3s-1.4-.8-1.9-1.5-.8-1.4-.9-2.2c-.2-.7-.2-1.5-.1-2.3.1-.8.4-1.6.7-2.3.4-.7.9-1.4 1.5-1.9 1.2-1.1 2.6-1.8 4.1-2.1 1.5-.4 3.1-.2 4.5.2s2.7 1.2 3.8 2.2c2.1 2 3.2 4.8 3.3 7.5.1 2.7-1.1 5.5-3.1 7.2-1 .8-2.2 1.4-3.3 1.9-1.2.5-2.3.9-3.6 1.2-1.2.3-2.5.4-3.8.3-1.3-.1-2.6-.3-3.8-.7-2.5-.9-4.8-2.6-6.5-4.8-1.7-2.2-2.8-5-2.9-7.9-.1-3 .7-5.8 2-8.3 1.3-2.4 3-4.6 4.7-6.4 1.8-1.8 3.8-3.4 5.7-4.8 1.9-1.4 3.8-2.9 5.3-4.7 1.5-1.8 2.6-3.9 2.7-6.3.1-2.4-1.1-4.5-2.2-6.5s-2.6-3.8-4-5.4l2.1-.2c-1.9 2.8-3.6 6-4.4 9.3-.2.8-.4 1.7-.5 2.5-.1.9-.2 1.8-.2 2.7-.1 1.8.3 3.6.7 5.4.8 3.5 1.9 7 3 10.5 1 3.5 2.1 7 3 10.6.9 3.6 1.7 7.2 2.2 10.8.5 3.6.9 7.3.6 11-.3 3.7-1.2 7.5-3.6 10.6-1.2 1.5-3 2.7-5.1 2.9-1 .1-2.2-.2-3-.7-.9-.5-1.6-1.2-2.2-1.9l1-.8z" style="fill:rgb(51, 51, 51);animation-play-state:paused" ></path></g>
<ellipse fill="#333" ry="4.1" rx="4.5" cy="83.1" cx="45.5" style="fill:rgb(51, 51, 51);animation-play-state:paused" ></ellipse>
<metadata xmlns:d="https://loading.io/stock/" style="animation-play-state:paused" ><d:name style="animation-play-state:paused" >clef</d:name>


<d:tags style="animation-play-state:paused" >clef,g-clef,treble clef,french violin,piano,music</d:tags>


<d:license style="animation-play-state:paused" >by</d:license>


<d:slug style="animation-play-state:paused" >k4qe55</d:slug></metadata></g><!-- generated by https://loading.io/ --></svg>