<?xml version="1.0" encoding="utf-8"?><svg xml:space="preserve" viewBox="0 0 100 100" y="0" x="0" xmlns="http://www.w3.org/2000/svg" id="圖層_1" version="1.1" width="200px" height="200px" xmlns:xlink="http://www.w3.org/1999/xlink" style="background-color:#cb4242;width:100%;height:100%;background-size:initial;background-repeat-y:initial;background-repeat-x:initial;background-position-y:initial;background-position-x:initial;background-origin:initial;background-image:initial;background-color:transparent;background-clip:initial;background-attachment:initial;animation-play-state:paused" >

<g class="ldl-scale" style="transform-origin:50% 50%;animation-play-state:paused" >
<!-- <circle fill="#333" r="41.122" cy="50" cx="50" style="fill:0;animation-play-state:paused" ></circle> -->
<path fill="#e0e0e0" d="M74.516 54.906a25.162 25.162 0 0 0 0-9.812l-6.474-.195a18.629 18.629 0 0 0-1.677-4.049l4.439-4.714a25.13 25.13 0 0 0-6.939-6.939l-4.714 4.439a18.58 18.58 0 0 0-4.049-1.677l-.195-6.474a25.103 25.103 0 0 0-9.813-.001l-.195 6.474a18.629 18.629 0 0 0-4.049 1.677l-4.714-4.439a25.13 25.13 0 0 0-6.939 6.939l4.439 4.714a18.58 18.58 0 0 0-1.677 4.049l-6.474.195a25.103 25.103 0 0 0-.001 9.813l6.474.195a18.629 18.629 0 0 0 1.677 4.049l-4.439 4.714a25.13 25.13 0 0 0 6.939 6.939l4.714-4.439a18.58 18.58 0 0 0 4.049 1.677l.195 6.474a25.103 25.103 0 0 0 9.813.001l.195-6.474a18.629 18.629 0 0 0 4.049-1.677l4.714 4.439a25.13 25.13 0 0 0 6.939-6.939l-4.439-4.714a18.58 18.58 0 0 0 1.677-4.049l6.475-.196zM50 59.375A9.375 9.375 0 0 1 40.625 50c0-5.178 4.197-9.375 9.375-9.375s9.375 4.197 9.375 9.375A9.375 9.375 0 0 1 50 59.375z" style="fill:rgb(224, 224, 224);animation-play-state:paused" ></path>

<metadata xmlns:d="https://loading.io/stock/" style="animation-play-state:paused" ><d:name style="animation-play-state:paused" >gear</d:name>
<d:tags style="animation-play-state:paused" >setup,component,part,assembly,gear,edit,gear,gear</d:tags>
<d:license style="animation-play-state:paused" >by</d:license>
<d:slug style="animation-play-state:paused" >r9txgd</d:slug></metadata></g><!-- generated by https://loading.io/ --></svg>